<?xml version="1.0" encoding="UTF-8" standalone="no"?><svg xmlns="http://www.w3.org/2000/svg" xmlns:xlink="http://www.w3.org/1999/xlink" contentScriptType="application/ecmascript" contentStyleType="text/css" height="337px" preserveAspectRatio="none" style="width:1302px;height:337px;" version="1.1" viewBox="0 0 1302 337" width="1302px" zoomAndPan="magnify"><defs><filter height="300%" id="ftbhuv86wcof7" width="300%" x="-1" y="-1"><feGaussianBlur result="blurOut" stdDeviation="2.0"/><feColorMatrix in="blurOut" result="blurOut2" type="matrix" values="0 0 0 0 0 0 0 0 0 0 0 0 0 0 0 0 0 0 .4 0"/><feOffset dx="4.0" dy="4.0" in="blurOut2" result="blurOut3"/><feBlend in="SourceGraphic" in2="blurOut3" mode="normal"/></filter></defs><g><!--cluster de.fhro.inf.prg3.a13.tweets--><polygon fill="#FFFFFF" filter="url(#ftbhuv86wcof7)" points="14,16,239,16,246,38.2969,1280,38.2969,1280,325,14,325,14,16" style="stroke: #000000; stroke-width: 1.5;"/><line style="stroke: #000000; stroke-width: 1.5;" x1="14" x2="246" y1="38.2969" y2="38.2969"/><text fill="#000000" font-family="sans-serif" font-size="14" font-weight="bold" lengthAdjust="spacingAndGlyphs" textLength="219" x="18" y="30.9951">de.fhro.inf.prg3.a13.tweets</text><!--cluster generators--><polygon fill="#FFFFFF" filter="url(#ftbhuv86wcof7)" points="22,43,116,43,123,65.2969,1272,65.2969,1272,209,22,209,22,43" style="stroke: #000000; stroke-width: 1.5;"/><line style="stroke: #000000; stroke-width: 1.5;" x1="22" x2="123" y1="65.2969" y2="65.2969"/><text fill="#000000" font-family="sans-serif" font-size="14" font-weight="bold" lengthAdjust="spacingAndGlyphs" textLength="88" x="26" y="57.9951">generators</text><!--class TweetStreamFactory--><rect fill="#FEFECE" filter="url(#ftbhuv86wcof7)" height="99.2188" id="TweetStreamFactory" style="stroke: #A80036; stroke-width: 1.5;" width="390" x="369" y="217.5"/><ellipse cx="490.25" cy="233.5" fill="#ADD1B2" rx="11" ry="11" style="stroke: #A80036; stroke-width: 1.0;"/><path d="M493.2188,239.1406 Q492.6406,239.4375 492,239.5781 Q491.3594,239.7344 490.6563,239.7344 Q488.1563,239.7344 486.8281,238.0938 Q485.5156,236.4375 485.5156,233.3125 Q485.5156,230.1875 486.8281,228.5313 Q488.1563,226.875 490.6563,226.875 Q491.3594,226.875 492,227.0313 Q492.6563,227.1875 493.2188,227.4844 L493.2188,230.2031 Q492.5938,229.625 492,229.3594 Q491.4063,229.0781 490.7813,229.0781 Q489.4375,229.0781 488.75,230.1563 Q488.0625,231.2188 488.0625,233.3125 Q488.0625,235.4063 488.75,236.4844 Q489.4375,237.5469 490.7813,237.5469 Q491.4063,237.5469 492,237.2813 Q492.5938,237 493.2188,236.4219 L493.2188,239.1406 Z "/><ellipse cx="515.75" cy="233" fill="#84BE84" rx="3" ry="3" style="stroke: #038048; stroke-width: 1.0;"/><text fill="#000000" font-family="sans-serif" font-size="12" lengthAdjust="spacingAndGlyphs" textLength="128" x="521.75" y="237.6543">TweetStreamFactory</text><line style="stroke: #A80036; stroke-width: 1.5;" x1="370" x2="758" y1="249.5" y2="249.5"/><rect fill="none" height="6" style="stroke: #C82930; stroke-width: 1.0;" width="6" x="377" y="258.4023"/><text fill="#000000" font-family="sans-serif" font-size="11" lengthAdjust="spacingAndGlyphs" text-decoration="underline" textLength="173" x="389" y="263.7104">instance: TweetStreamFactory</text><line style="stroke: #000000; stroke-width: 1.0;" x1="389" x2="562" y1="265.7104" y2="265.7104"/><line style="stroke: #A80036; stroke-width: 1.5;" x1="370" x2="758" y1="270.3047" y2="270.3047"/><ellipse cx="380" cy="282.207" fill="#84BE84" rx="3" ry="3" style="stroke: #038048; stroke-width: 1.0;"/><text fill="#000000" font-family="sans-serif" font-size="11" lengthAdjust="spacingAndGlyphs" text-decoration="underline" textLength="199" x="389" y="284.5151">getInstance(): TweetStreamFactory</text><line style="stroke: #000000; stroke-width: 1.0;" x1="389" x2="588" y1="286.5151" y2="286.5151"/><ellipse cx="380" cy="295.0117" fill="#84BE84" rx="3" ry="3" style="stroke: #038048; stroke-width: 1.0;"/><text fill="#000000" font-family="sans-serif" font-size="11" lengthAdjust="spacingAndGlyphs" textLength="157" x="389" y="297.3198">isOnlineAvailable(): boolean</text><ellipse cx="380" cy="307.8164" fill="#84BE84" rx="3" ry="3" style="stroke: #038048; stroke-width: 1.0;"/><text fill="#000000" font-family="sans-serif" font-size="11" lengthAdjust="spacingAndGlyphs" textLength="364" x="389" y="310.1245">getTweetsStream(tweetSource: TweetSource): Stream&lt;Tweet&gt;</text><!--class TweetSource--><rect fill="#FEFECE" filter="url(#ftbhuv86wcof7)" height="73.6094" id="TweetSource" style="stroke: #A80036; stroke-width: 1.5;" width="124" x="76" y="230"/><ellipse cx="91" cy="246" fill="#EB937F" rx="11" ry="11" style="stroke: #A80036; stroke-width: 1.0;"/><path d="M95.1094,252 L87.3906,252 L87.3906,239.6094 L95.1094,239.6094 L95.1094,241.7656 L89.8438,241.7656 L89.8438,244.4375 L94.6094,244.4375 L94.6094,246.5938 L89.8438,246.5938 L89.8438,249.8438 L95.1094,249.8438 L95.1094,252 Z "/><ellipse cx="110" cy="245.5" fill="#84BE84" rx="3" ry="3" style="stroke: #038048; stroke-width: 1.0;"/><text fill="#000000" font-family="sans-serif" font-size="12" lengthAdjust="spacingAndGlyphs" textLength="81" x="116" y="250.1543">TweetSource</text><line style="stroke: #A80036; stroke-width: 1.5;" x1="77" x2="199" y1="262" y2="262"/><text fill="#000000" font-family="sans-serif" font-size="11" lengthAdjust="spacingAndGlyphs" textLength="45" x="82" y="276.2104">ONLINE,</text><text fill="#000000" font-family="sans-serif" font-size="11" lengthAdjust="spacingAndGlyphs" textLength="45" x="82" y="289.0151">OFFLINE</text><line style="stroke: #A80036; stroke-width: 1.5;" x1="77" x2="199" y1="295.6094" y2="295.6094"/><!--class TweetStreamGenerator--><rect fill="#FEFECE" filter="url(#ftbhuv86wcof7)" height="60.8047" id="TweetStreamGenerator" style="stroke: #A80036; stroke-width: 1.5;" width="216" x="30" y="85.5"/><ellipse cx="56.7" cy="101.5" fill="#B4A7E5" rx="11" ry="11" style="stroke: #A80036; stroke-width: 1.0;"/><path d="M52.6219,97.2656 L52.6219,95.1094 L60.0125,95.1094 L60.0125,97.2656 L57.5438,97.2656 L57.5438,105.3438 L60.0125,105.3438 L60.0125,107.5 L52.6219,107.5 L52.6219,105.3438 L55.0906,105.3438 L55.0906,97.2656 L52.6219,97.2656 Z "/><ellipse cx="78.3" cy="101" fill="#84BE84" rx="3" ry="3" style="stroke: #038048; stroke-width: 1.0;"/><text fill="#000000" font-family="sans-serif" font-size="12" font-style="italic" lengthAdjust="spacingAndGlyphs" textLength="147" x="84.3" y="105.6543">TweetStreamGenerator</text><line style="stroke: #A80036; stroke-width: 1.5;" x1="31" x2="245" y1="117.5" y2="117.5"/><line style="stroke: #A80036; stroke-width: 1.5;" x1="31" x2="245" y1="125.5" y2="125.5"/><text fill="#000000" font-family="sans-serif" font-size="11" lengthAdjust="spacingAndGlyphs" textLength="204" x="36" y="139.7104">getTweetStream(): Stream&lt;Tweet&gt;</text><!--class OnlineTweetStreamGenerator--><rect fill="#FEFECE" filter="url(#ftbhuv86wcof7)" height="48" id="OnlineTweetStreamGenerator" style="stroke: #A80036; stroke-width: 1.5;" width="228" x="1036" y="153"/><ellipse cx="1051" cy="169" fill="#ADD1B2" rx="11" ry="11" style="stroke: #A80036; stroke-width: 1.0;"/><path d="M1053.9688,174.6406 Q1053.3906,174.9375 1052.75,175.0781 Q1052.1094,175.2344 1051.4063,175.2344 Q1048.9063,175.2344 1047.5781,173.5938 Q1046.2656,171.9375 1046.2656,168.8125 Q1046.2656,165.6875 1047.5781,164.0313 Q1048.9063,162.375 1051.4063,162.375 Q1052.1094,162.375 1052.75,162.5313 Q1053.4063,162.6875 1053.9688,162.9844 L1053.9688,165.7031 Q1053.3438,165.125 1052.75,164.8594 Q1052.1563,164.5781 1051.5313,164.5781 Q1050.1875,164.5781 1049.5,165.6563 Q1048.8125,166.7188 1048.8125,168.8125 Q1048.8125,170.9063 1049.5,171.9844 Q1050.1875,173.0469 1051.5313,173.0469 Q1052.1563,173.0469 1052.75,172.7813 Q1053.3438,172.5 1053.9688,171.9219 L1053.9688,174.6406 Z "/><ellipse cx="1070" cy="168.5" fill="#84BE84" rx="3" ry="3" style="stroke: #038048; stroke-width: 1.0;"/><text fill="#000000" font-family="sans-serif" font-size="12" lengthAdjust="spacingAndGlyphs" textLength="185" x="1076" y="173.1543">OnlineTweetStreamGenerator</text><line style="stroke: #A80036; stroke-width: 1.5;" x1="1037" x2="1263" y1="185" y2="185"/><line style="stroke: #A80036; stroke-width: 1.5;" x1="1037" x2="1263" y1="193" y2="193"/><!--class OfflineTweetStreamGenerator--><rect fill="#FEFECE" filter="url(#ftbhuv86wcof7)" height="48" id="OfflineTweetStreamGenerator" style="stroke: #A80036; stroke-width: 1.5;" width="228" x="1036" y="70"/><ellipse cx="1051" cy="86" fill="#ADD1B2" rx="11" ry="11" style="stroke: #A80036; stroke-width: 1.0;"/><path d="M1053.9688,91.6406 Q1053.3906,91.9375 1052.75,92.0781 Q1052.1094,92.2344 1051.4063,92.2344 Q1048.9063,92.2344 1047.5781,90.5938 Q1046.2656,88.9375 1046.2656,85.8125 Q1046.2656,82.6875 1047.5781,81.0313 Q1048.9063,79.375 1051.4063,79.375 Q1052.1094,79.375 1052.75,79.5313 Q1053.4063,79.6875 1053.9688,79.9844 L1053.9688,82.7031 Q1053.3438,82.125 1052.75,81.8594 Q1052.1563,81.5781 1051.5313,81.5781 Q1050.1875,81.5781 1049.5,82.6563 Q1048.8125,83.7188 1048.8125,85.8125 Q1048.8125,87.9063 1049.5,88.9844 Q1050.1875,90.0469 1051.5313,90.0469 Q1052.1563,90.0469 1052.75,89.7813 Q1053.3438,89.5 1053.9688,88.9219 L1053.9688,91.6406 Z "/><ellipse cx="1070" cy="85.5" fill="#84BE84" rx="3" ry="3" style="stroke: #038048; stroke-width: 1.0;"/><text fill="#000000" font-family="sans-serif" font-size="12" lengthAdjust="spacingAndGlyphs" textLength="185" x="1076" y="90.1543">OfflineTweetStreamGenerator</text><line style="stroke: #A80036; stroke-width: 1.5;" x1="1037" x2="1263" y1="102" y2="102"/><line style="stroke: #A80036; stroke-width: 1.5;" x1="1037" x2="1263" y1="110" y2="110"/><!--link TweetStreamGenerator to OnlineTweetStreamGenerator--><path d="M266.5478,127.9355 C280.36,128.598 294.2143,129 307.5,129 C307.5,129 307.5,129 897.5,129 C945.7734,129 958.4072,125.9226 1006,134 C1031.2085,138.2783 1058.2193,145.5825 1081.9583,152.9689 " fill="none" id="TweetStreamGenerator-OnlineTweetStreamGenerator" style="stroke: #A80036; stroke-width: 1.0; stroke-dasharray: 7.0,7.0;"/><polygon fill="none" points="265.9846,134.9149,246.4126,126.7947,266.7765,120.9373,265.9846,134.9149" style="stroke: #A80036; stroke-width: 1.0;"/><!--link TweetStreamGenerator to OfflineTweetStreamGenerator--><path d="M266.3578,93.9653 C280.2063,92.7421 294.1211,92 307.5,92 C307.5,92 307.5,92 897.5,92 C942.7629,92 992.5884,92.3253 1035.9333,92.7136 " fill="none" id="TweetStreamGenerator-OfflineTweetStreamGenerator" style="stroke: #A80036; stroke-width: 1.0; stroke-dasharray: 7.0,7.0;"/><polygon fill="none" points="266.8044,100.9566,246.1857,96.0713,265.3507,87.0323,266.8044,100.9566" style="stroke: #A80036; stroke-width: 1.0;"/><!--link TweetStreamFactory to OnlineTweetStreamGenerator--><path d="M759.2342,266.8656 C828.019,263.7342 905.4948,256.6833 975,242 C1015.4998,233.4442 1059.1467,217.2467 1092.7201,203.162 " fill="none" id="TweetStreamFactory-OnlineTweetStreamGenerator" style="stroke: #A80036; stroke-width: 1.0;"/><polygon fill="#A80036" points="1097.5988,201.1005,1087.7516,200.919,1092.9931,203.0466,1090.8654,208.2881,1097.5988,201.1005" style="stroke: #A80036; stroke-width: 1.0;"/><text fill="#000000" font-family="sans-serif" font-size="13" lengthAdjust="spacingAndGlyphs" textLength="153" x="821" y="238.0669">Instantiates and returns</text><!--link TweetStreamFactory to OfflineTweetStreamGenerator--><path d="M743.617,217.4437 C748.8036,215.9538 753.9401,214.4703 759,213 C866.0115,181.9041 988.8809,144.1747 1067.8761,119.6543 " fill="none" id="TweetStreamFactory-OfflineTweetStreamGenerator" style="stroke: #A80036; stroke-width: 1.0;"/><polygon fill="#A80036" points="1073.0153,118.0585,1063.2339,116.9075,1068.2402,119.5413,1065.6065,124.5476,1073.0153,118.0585" style="stroke: #A80036; stroke-width: 1.0;"/><text fill="#000000" font-family="sans-serif" font-size="13" lengthAdjust="spacingAndGlyphs" textLength="153" x="821" y="145.0669">Instantiates and returns</text><!--
@startuml GeneratorSpec

left to right direction

package de.fhro.inf.prg3.a13.tweets {

        +class TweetStreamFactory {
                -{static}instance: TweetStreamFactory
                +{static}getInstance(): TweetStreamFactory
                +isOnlineAvailable(): boolean
                +getTweetsStream(tweetSource: TweetSource): Stream<Tweet>
        }

        +enum TweetSource {
                ONLINE,
                OFFLINE
        }

        package generators {
                +interface TweetStreamGenerator {
                        getTweetStream(): Stream<Tweet>
                }

                +class OnlineTweetStreamGenerator implements TweetStreamGenerator {

                }

                +class OfflineTweetStreamGenerator implements TweetStreamGenerator {

                }
        }

        TweetStreamFactory - -> OnlineTweetStreamGenerator: Instantiates and returns
        TweetStreamFactory - -> OfflineTweetStreamGenerator: Instantiates and returns
}

@enduml

PlantUML version 1.2018.00(Thu Jan 04 20:42:56 CET 2018)
(GPL source distribution)
Java Runtime: OpenJDK Runtime Environment
JVM: OpenJDK 64-Bit Server VM
Java Version: 9+181
Operating System: Linux
OS Version: 4.14.13-1-ARCH
Default Encoding: UTF-8
Language: en
Country: US
--></g></svg>