<?xml version="1.0" encoding="UTF-8" standalone="no"?><svg xmlns="http://www.w3.org/2000/svg" xmlns:xlink="http://www.w3.org/1999/xlink" contentScriptType="application/ecmascript" contentStyleType="text/css" height="575px" preserveAspectRatio="none" style="width:957px;height:575px;" version="1.1" viewBox="0 0 957 575" width="957px" zoomAndPan="magnify"><defs><filter height="300%" id="fza8j4ckxqpi4" width="300%" x="-1" y="-1"><feGaussianBlur result="blurOut" stdDeviation="2.0"/><feColorMatrix in="blurOut" result="blurOut2" type="matrix" values="0 0 0 0 0 0 0 0 0 0 0 0 0 0 0 0 0 0 .4 0"/><feOffset dx="4.0" dy="4.0" in="blurOut2" result="blurOut3"/><feBlend in="SourceGraphic" in2="blurOut3" mode="normal"/></filter></defs><g><!--cluster de.fhro.inf.prg3.a13.tweets--><polygon fill="#FFFFFF" filter="url(#fza8j4ckxqpi4)" points="14,16.5,239,16.5,246,38.7969,935,38.7969,935,563,14,563,14,16.5" style="stroke: #000000; stroke-width: 1.5;"/><line style="stroke: #000000; stroke-width: 1.5;" x1="14" x2="246" y1="38.7969" y2="38.7969"/><text fill="#000000" font-family="sans-serif" font-size="14" font-weight="bold" lengthAdjust="spacingAndGlyphs" textLength="219" x="18" y="31.4951">de.fhro.inf.prg3.a13.tweets</text><!--cluster generators--><polygon fill="#FFFFFF" filter="url(#fza8j4ckxqpi4)" points="420,43.5,514,43.5,521,65.7969,927,65.7969,927,555,420,555,420,43.5" style="stroke: #000000; stroke-width: 1.5;"/><line style="stroke: #000000; stroke-width: 1.5;" x1="420" x2="521" y1="65.7969" y2="65.7969"/><text fill="#000000" font-family="sans-serif" font-size="14" font-weight="bold" lengthAdjust="spacingAndGlyphs" textLength="88" x="424" y="58.4951">generators</text><!--class TweetStreamFactory--><rect fill="#FEFECE" filter="url(#fza8j4ckxqpi4)" height="99.2188" id="TweetStreamFactory" style="stroke: #A80036; stroke-width: 1.5;" width="390" x="22" y="261"/><ellipse cx="143.25" cy="277" fill="#ADD1B2" rx="11" ry="11" style="stroke: #A80036; stroke-width: 1.0;"/><path d="M146.2188,282.6406 Q145.6406,282.9375 145,283.0781 Q144.3594,283.2344 143.6563,283.2344 Q141.1563,283.2344 139.8281,281.5938 Q138.5156,279.9375 138.5156,276.8125 Q138.5156,273.6875 139.8281,272.0313 Q141.1563,270.375 143.6563,270.375 Q144.3594,270.375 145,270.5313 Q145.6563,270.6875 146.2188,270.9844 L146.2188,273.7031 Q145.5938,273.125 145,272.8594 Q144.4063,272.5781 143.7813,272.5781 Q142.4375,272.5781 141.75,273.6563 Q141.0625,274.7188 141.0625,276.8125 Q141.0625,278.9063 141.75,279.9844 Q142.4375,281.0469 143.7813,281.0469 Q144.4063,281.0469 145,280.7813 Q145.5938,280.5 146.2188,279.9219 L146.2188,282.6406 Z "/><ellipse cx="168.75" cy="276.5" fill="#84BE84" rx="3" ry="3" style="stroke: #038048; stroke-width: 1.0;"/><text fill="#000000" font-family="sans-serif" font-size="12" lengthAdjust="spacingAndGlyphs" textLength="128" x="174.75" y="281.1543">TweetStreamFactory</text><line style="stroke: #A80036; stroke-width: 1.5;" x1="23" x2="411" y1="293" y2="293"/><rect fill="none" height="6" style="stroke: #C82930; stroke-width: 1.0;" width="6" x="30" y="301.9023"/><text fill="#000000" font-family="sans-serif" font-size="11" lengthAdjust="spacingAndGlyphs" text-decoration="underline" textLength="173" x="42" y="307.2104">instance: TweetStreamFactory</text><line style="stroke: #000000; stroke-width: 1.0;" x1="42" x2="215" y1="309.2104" y2="309.2104"/><line style="stroke: #A80036; stroke-width: 1.5;" x1="23" x2="411" y1="313.8047" y2="313.8047"/><ellipse cx="33" cy="325.707" fill="#84BE84" rx="3" ry="3" style="stroke: #038048; stroke-width: 1.0;"/><text fill="#000000" font-family="sans-serif" font-size="11" lengthAdjust="spacingAndGlyphs" text-decoration="underline" textLength="199" x="42" y="328.0151">getInstance(): TweetStreamFactory</text><line style="stroke: #000000; stroke-width: 1.0;" x1="42" x2="241" y1="330.0151" y2="330.0151"/><ellipse cx="33" cy="338.5117" fill="#84BE84" rx="3" ry="3" style="stroke: #038048; stroke-width: 1.0;"/><text fill="#000000" font-family="sans-serif" font-size="11" lengthAdjust="spacingAndGlyphs" textLength="157" x="42" y="340.8198">isOnlineAvailable(): boolean</text><ellipse cx="33" cy="351.3164" fill="#84BE84" rx="3" ry="3" style="stroke: #038048; stroke-width: 1.0;"/><text fill="#000000" font-family="sans-serif" font-size="11" lengthAdjust="spacingAndGlyphs" textLength="364" x="42" y="353.6245">getTweetsStream(tweetSource: TweetSource): Stream&lt;Tweet&gt;</text><!--class TweetSource--><rect fill="#FEFECE" filter="url(#fza8j4ckxqpi4)" height="73.6094" id="TweetSource" style="stroke: #A80036; stroke-width: 1.5;" width="124" x="155" y="64"/><ellipse cx="170" cy="80" fill="#EB937F" rx="11" ry="11" style="stroke: #A80036; stroke-width: 1.0;"/><path d="M174.1094,86 L166.3906,86 L166.3906,73.6094 L174.1094,73.6094 L174.1094,75.7656 L168.8438,75.7656 L168.8438,78.4375 L173.6094,78.4375 L173.6094,80.5938 L168.8438,80.5938 L168.8438,83.8438 L174.1094,83.8438 L174.1094,86 Z "/><ellipse cx="189" cy="79.5" fill="#84BE84" rx="3" ry="3" style="stroke: #038048; stroke-width: 1.0;"/><text fill="#000000" font-family="sans-serif" font-size="12" lengthAdjust="spacingAndGlyphs" textLength="81" x="195" y="84.1543">TweetSource</text><line style="stroke: #A80036; stroke-width: 1.5;" x1="156" x2="278" y1="96" y2="96"/><text fill="#000000" font-family="sans-serif" font-size="11" lengthAdjust="spacingAndGlyphs" textLength="45" x="161" y="110.2104">ONLINE,</text><text fill="#000000" font-family="sans-serif" font-size="11" lengthAdjust="spacingAndGlyphs" textLength="45" x="161" y="123.0151">OFFLINE</text><line style="stroke: #A80036; stroke-width: 1.5;" x1="156" x2="278" y1="129.6094" y2="129.6094"/><!--class TweetStreamGenerator--><rect fill="#FEFECE" filter="url(#fza8j4ckxqpi4)" height="60.8047" id="TweetStreamGenerator" style="stroke: #A80036; stroke-width: 1.5;" width="216" x="661" y="70.5"/><ellipse cx="687.7" cy="86.5" fill="#B4A7E5" rx="11" ry="11" style="stroke: #A80036; stroke-width: 1.0;"/><path d="M683.6219,82.2656 L683.6219,80.1094 L691.0125,80.1094 L691.0125,82.2656 L688.5438,82.2656 L688.5438,90.3438 L691.0125,90.3438 L691.0125,92.5 L683.6219,92.5 L683.6219,90.3438 L686.0906,90.3438 L686.0906,82.2656 L683.6219,82.2656 Z "/><ellipse cx="709.3" cy="86" fill="#84BE84" rx="3" ry="3" style="stroke: #038048; stroke-width: 1.0;"/><text fill="#000000" font-family="sans-serif" font-size="12" font-style="italic" lengthAdjust="spacingAndGlyphs" textLength="147" x="715.3" y="90.6543">TweetStreamGenerator</text><line style="stroke: #A80036; stroke-width: 1.5;" x1="662" x2="876" y1="102.5" y2="102.5"/><line style="stroke: #A80036; stroke-width: 1.5;" x1="662" x2="876" y1="110.5" y2="110.5"/><text fill="#000000" font-family="sans-serif" font-size="11" lengthAdjust="spacingAndGlyphs" textLength="204" x="667" y="124.7104">getTweetStream(): Stream&lt;Tweet&gt;</text><!--class OnlineTweetStreamGenerator--><rect fill="#FEFECE" filter="url(#fza8j4ckxqpi4)" height="48" id="OnlineTweetStreamGenerator" style="stroke: #A80036; stroke-width: 1.5;" width="228" x="428" y="499"/><ellipse cx="443" cy="515" fill="#ADD1B2" rx="11" ry="11" style="stroke: #A80036; stroke-width: 1.0;"/><path d="M445.9688,520.6406 Q445.3906,520.9375 444.75,521.0781 Q444.1094,521.2344 443.4063,521.2344 Q440.9063,521.2344 439.5781,519.5938 Q438.2656,517.9375 438.2656,514.8125 Q438.2656,511.6875 439.5781,510.0313 Q440.9063,508.375 443.4063,508.375 Q444.1094,508.375 444.75,508.5313 Q445.4063,508.6875 445.9688,508.9844 L445.9688,511.7031 Q445.3438,511.125 444.75,510.8594 Q444.1563,510.5781 443.5313,510.5781 Q442.1875,510.5781 441.5,511.6563 Q440.8125,512.7188 440.8125,514.8125 Q440.8125,516.9063 441.5,517.9844 Q442.1875,519.0469 443.5313,519.0469 Q444.1563,519.0469 444.75,518.7813 Q445.3438,518.5 445.9688,517.9219 L445.9688,520.6406 Z "/><ellipse cx="462" cy="514.5" fill="#84BE84" rx="3" ry="3" style="stroke: #038048; stroke-width: 1.0;"/><text fill="#000000" font-family="sans-serif" font-size="12" lengthAdjust="spacingAndGlyphs" textLength="185" x="468" y="519.1543">OnlineTweetStreamGenerator</text><line style="stroke: #A80036; stroke-width: 1.5;" x1="429" x2="655" y1="531" y2="531"/><line style="stroke: #A80036; stroke-width: 1.5;" x1="429" x2="655" y1="539" y2="539"/><!--class OfflineTweetStreamGenerator--><rect fill="#FEFECE" filter="url(#fza8j4ckxqpi4)" height="48" id="OfflineTweetStreamGenerator" style="stroke: #A80036; stroke-width: 1.5;" width="228" x="691" y="499"/><ellipse cx="706" cy="515" fill="#ADD1B2" rx="11" ry="11" style="stroke: #A80036; stroke-width: 1.0;"/><path d="M708.9688,520.6406 Q708.3906,520.9375 707.75,521.0781 Q707.1094,521.2344 706.4063,521.2344 Q703.9063,521.2344 702.5781,519.5938 Q701.2656,517.9375 701.2656,514.8125 Q701.2656,511.6875 702.5781,510.0313 Q703.9063,508.375 706.4063,508.375 Q707.1094,508.375 707.75,508.5313 Q708.4063,508.6875 708.9688,508.9844 L708.9688,511.7031 Q708.3438,511.125 707.75,510.8594 Q707.1563,510.5781 706.5313,510.5781 Q705.1875,510.5781 704.5,511.6563 Q703.8125,512.7188 703.8125,514.8125 Q703.8125,516.9063 704.5,517.9844 Q705.1875,519.0469 706.5313,519.0469 Q707.1563,519.0469 707.75,518.7813 Q708.3438,518.5 708.9688,517.9219 L708.9688,520.6406 Z "/><ellipse cx="725" cy="514.5" fill="#84BE84" rx="3" ry="3" style="stroke: #038048; stroke-width: 1.0;"/><text fill="#000000" font-family="sans-serif" font-size="12" lengthAdjust="spacingAndGlyphs" textLength="185" x="731" y="519.1543">OfflineTweetStreamGenerator</text><line style="stroke: #A80036; stroke-width: 1.5;" x1="692" x2="918" y1="531" y2="531"/><line style="stroke: #A80036; stroke-width: 1.5;" x1="692" x2="918" y1="539" y2="539"/><!--link TweetStreamGenerator to OnlineTweetStreamGenerator--><path d="M749.7479,151.1161 C745.3798,166.4139 742,183.4398 742,199.5 C742,199.5 742,199.5 742,429.5 C742,447.1956 748.5785,455.6182 737,469 C725.2777,482.548 691.9398,493.8726 656.0723,502.5947 " fill="none" id="TweetStreamGenerator-OnlineTweetStreamGenerator" style="stroke: #A80036; stroke-width: 1.0; stroke-dasharray: 7.0,7.0;"/><polygon fill="none" points="743.149,148.7721,755.9745,131.9047,756.467,153.0886,743.149,148.7721" style="stroke: #A80036; stroke-width: 1.0;"/><!--link TweetStreamGenerator to OfflineTweetStreamGenerator--><path d="M788.2521,151.1161 C792.6202,166.4139 796,183.4398 796,199.5 C796,199.5 796,199.5 796,429.5 C796,453.1461 798.8873,480.0019 801.3912,498.8454 " fill="none" id="TweetStreamGenerator-OfflineTweetStreamGenerator" style="stroke: #A80036; stroke-width: 1.0; stroke-dasharray: 7.0,7.0;"/><polygon fill="none" points="781.533,153.0886,782.0255,131.9047,794.851,148.7721,781.533,153.0886" style="stroke: #A80036; stroke-width: 1.0;"/><!--link TweetStreamFactory to OnlineTweetStreamGenerator--><path d="M247.3024,360.089 C265.381,386.2334 290.3707,417.1211 319,438 C355.4304,464.5681 401.1863,483.9084 441.7557,497.3648 " fill="none" id="TweetStreamFactory-OnlineTweetStreamGenerator" style="stroke: #A80036; stroke-width: 1.0;"/><polygon fill="#A80036" points="446.6765,498.9768,439.369,492.3738,441.925,497.4202,436.8785,499.9762,446.6765,498.9768" style="stroke: #A80036; stroke-width: 1.0;"/><text fill="#000000" font-family="sans-serif" font-size="13" lengthAdjust="spacingAndGlyphs" textLength="153" x="320" y="434.0669">Instantiates and returns</text><!--link TweetStreamFactory to OfflineTweetStreamGenerator--><path d="M354.1178,360.0536 C472.8043,402.9463 639.7307,463.2726 733.6121,497.2008 " fill="none" id="TweetStreamFactory-OfflineTweetStreamGenerator" style="stroke: #A80036; stroke-width: 1.0;"/><polygon fill="#A80036" points="738.5806,498.9964,731.4759,492.1756,733.8783,497.297,728.7569,499.6994,738.5806,498.9964" style="stroke: #A80036; stroke-width: 1.0;"/><text fill="#000000" font-family="sans-serif" font-size="13" lengthAdjust="spacingAndGlyphs" textLength="153" x="570" y="434.0669">Instantiates and returns</text><!--
@startuml GeneratorSpec

package de.fhro.inf.prg3.a13.tweets {

        +class TweetStreamFactory {
                -{static}instance: TweetStreamFactory
                +{static}getInstance(): TweetStreamFactory
                +isOnlineAvailable(): boolean
                +getTweetsStream(tweetSource: TweetSource): Stream<Tweet>
        }

        +enum TweetSource {
                ONLINE,
                OFFLINE
        }

        package generators {
                +interface TweetStreamGenerator {
                        getTweetStream(): Stream<Tweet>
                }

                +class OnlineTweetStreamGenerator implements TweetStreamGenerator {

                }

                +class OfflineTweetStreamGenerator implements TweetStreamGenerator {

                }
        }

        TweetStreamFactory - -> OnlineTweetStreamGenerator: Instantiates and returns
        TweetStreamFactory - -> OfflineTweetStreamGenerator: Instantiates and returns
}

@enduml

PlantUML version 1.2018.00(Thu Jan 04 20:42:56 CET 2018)
(GPL source distribution)
Java Runtime: OpenJDK Runtime Environment
JVM: OpenJDK 64-Bit Server VM
Java Version: 9+181
Operating System: Linux
OS Version: 4.14.13-1-ARCH
Default Encoding: UTF-8
Language: en
Country: US
--></g></svg>