<?xml version="1.0" encoding="UTF-8" standalone="no"?><svg xmlns="http://www.w3.org/2000/svg" xmlns:xlink="http://www.w3.org/1999/xlink" contentScriptType="application/ecmascript" contentStyleType="text/css" height="595px" preserveAspectRatio="none" style="width:882px;height:595px;" version="1.1" viewBox="0 0 882 595" width="882px" zoomAndPan="magnify"><defs><filter height="300%" id="fs0ljapmh56cy" width="300%" x="-1" y="-1"><feGaussianBlur result="blurOut" stdDeviation="2.0"/><feColorMatrix in="blurOut" result="blurOut2" type="matrix" values="0 0 0 0 0 0 0 0 0 0 0 0 0 0 0 0 0 0 .4 0"/><feOffset dx="4.0" dy="4.0" in="blurOut2" result="blurOut3"/><feBlend in="SourceGraphic" in2="blurOut3" mode="normal"/></filter></defs><g><!--cluster de.thro.inf.prg3.a13.tweets--><polygon fill="#FFFFFF" filter="url(#fs0ljapmh56cy)" points="14,16.5,208,16.5,215,41.5679,860,41.5679,860,583,14,583,14,16.5" style="stroke: #000000; stroke-width: 1.5;"/><line style="stroke: #000000; stroke-width: 1.5;" x1="14" x2="215" y1="41.5679" y2="41.5679"/><text fill="#000000" font-family="sans-serif" font-size="14" font-weight="bold" lengthAdjust="spacingAndGlyphs" textLength="188" x="18" y="33.4659">de.thro.inf.prg3.a13.tweets</text><!--cluster generators--><polygon fill="#FFFFFF" filter="url(#fs0ljapmh56cy)" points="376,46.5,458,46.5,465,71.5679,852,71.5679,852,575,376,575,376,46.5" style="stroke: #000000; stroke-width: 1.5;"/><line style="stroke: #000000; stroke-width: 1.5;" x1="376" x2="465" y1="71.5679" y2="71.5679"/><text fill="#000000" font-family="sans-serif" font-size="14" font-weight="bold" lengthAdjust="spacingAndGlyphs" textLength="76" x="380" y="63.4659">generators</text><!--class TweetStreamFactory--><rect fill="#FEFECE" filter="url(#fs0ljapmh56cy)" height="107.9276" id="TweetStreamFactory" style="stroke: #A80036; stroke-width: 1.5;" width="346" x="22" y="270"/><ellipse cx="127.25" cy="286" fill="#ADD1B2" rx="11" ry="11" style="stroke: #A80036; stroke-width: 1.0;"/><path d="M126.9375,282.3281 Q125.4531,282.3281 124.6719,283.4375 Q123.8906,284.5469 123.8906,286.4688 Q123.8906,288.4063 124.6094,289.4688 Q125.3281,290.5313 126.9375,290.5313 Q127.6719,290.5313 128.4063,290.3594 Q129.1563,290.1875 130.0313,289.875 L130.0313,292.0469 Q129.2188,292.3594 128.4375,292.5156 Q127.6563,292.6719 126.6875,292.6719 Q124.8281,292.6719 123.6094,291.9063 Q122.3906,291.125 121.8125,289.7188 Q121.2344,288.3125 121.2344,286.4531 Q121.2344,284.6094 121.8906,283.2031 Q122.5625,281.7969 123.8281,281 Q125.0938,280.1875 126.9375,280.1875 Q127.8281,280.1875 128.7344,280.4219 Q129.6563,280.6563 130.4844,281.0469 L129.6563,283.1406 Q128.9688,282.8125 128.2813,282.5781 Q127.5938,282.3281 126.9375,282.3281 Z "/><ellipse cx="152.75" cy="285.5" fill="#84BE84" rx="3" ry="3" style="stroke: #038048; stroke-width: 1.0;"/><text fill="#000000" font-family="sans-serif" font-size="12" lengthAdjust="spacingAndGlyphs" textLength="116" x="158.75" y="290.656">TweetStreamFactory</text><line style="stroke: #A80036; stroke-width: 1.5;" x1="23" x2="367" y1="302" y2="302"/><rect fill="none" height="6" style="stroke: #C82930; stroke-width: 1.0;" width="6" x="30" y="311.9909"/><text fill="#000000" font-family="sans-serif" font-size="11" lengthAdjust="spacingAndGlyphs" text-decoration="underline" textLength="156" x="42" y="317.7589">instance: TweetStreamFactory</text><line style="stroke: #000000; stroke-width: 1.0;" x1="42" x2="198" y1="319.7589" y2="319.7589"/><line style="stroke: #A80036; stroke-width: 1.5;" x1="23" x2="367" y1="324.9819" y2="324.9819"/><ellipse cx="33" cy="337.9728" fill="#84BE84" rx="3" ry="3" style="stroke: #038048; stroke-width: 1.0;"/><text fill="#000000" font-family="sans-serif" font-size="11" lengthAdjust="spacingAndGlyphs" text-decoration="underline" textLength="180" x="42" y="340.7408">getInstance(): TweetStreamFactory</text><line style="stroke: #000000; stroke-width: 1.0;" x1="42" x2="222" y1="342.7408" y2="342.7408"/><ellipse cx="33" cy="352.9547" fill="#84BE84" rx="3" ry="3" style="stroke: #038048; stroke-width: 1.0;"/><text fill="#000000" font-family="sans-serif" font-size="11" lengthAdjust="spacingAndGlyphs" textLength="145" x="42" y="355.7227">isOnlineAvailable(): boolean</text><ellipse cx="33" cy="367.9366" fill="#84BE84" rx="3" ry="3" style="stroke: #038048; stroke-width: 1.0;"/><text fill="#000000" font-family="sans-serif" font-size="11" lengthAdjust="spacingAndGlyphs" textLength="320" x="42" y="370.7046">getTweetsStream(tweetSource: TweetSource): Stream&lt;Tweet&gt;</text><!--class TweetSource--><rect fill="#FEFECE" filter="url(#fs0ljapmh56cy)" height="77.9638" id="TweetSource" style="stroke: #A80036; stroke-width: 1.5;" width="116" x="137" y="69"/><ellipse cx="152" cy="85" fill="#EB937F" rx="11" ry="11" style="stroke: #A80036; stroke-width: 1.0;"/><path d="M155.0156,91.5 L148.0313,91.5 L148.0313,79.3594 L155.0156,79.3594 L155.0156,81.4688 L150.5938,81.4688 L150.5938,84.1406 L154.7188,84.1406 L154.7188,86.25 L150.5938,86.25 L150.5938,89.375 L155.0156,89.375 L155.0156,91.5 Z "/><ellipse cx="171" cy="84.5" fill="#84BE84" rx="3" ry="3" style="stroke: #038048; stroke-width: 1.0;"/><text fill="#000000" font-family="sans-serif" font-size="12" lengthAdjust="spacingAndGlyphs" textLength="73" x="177" y="89.656">TweetSource</text><line style="stroke: #A80036; stroke-width: 1.5;" x1="138" x2="252" y1="101" y2="101"/><text fill="#000000" font-family="sans-serif" font-size="11" lengthAdjust="spacingAndGlyphs" textLength="44" x="143" y="116.7589">ONLINE,</text><text fill="#000000" font-family="sans-serif" font-size="11" lengthAdjust="spacingAndGlyphs" textLength="45" x="143" y="131.7408">OFFLINE</text><line style="stroke: #A80036; stroke-width: 1.5;" x1="138" x2="252" y1="138.9638" y2="138.9638"/><!--class TweetStreamGenerator--><rect fill="#FEFECE" filter="url(#fs0ljapmh56cy)" height="62.9819" id="TweetStreamGenerator" style="stroke: #A80036; stroke-width: 1.5;" width="189" x="611.5" y="76.5"/><ellipse cx="635.95" cy="92.5" fill="#B4A7E5" rx="11" ry="11" style="stroke: #A80036; stroke-width: 1.0;"/><path d="M638.5125,99 L632.9969,99 L632.9969,97.5313 L634.4656,96.8594 L634.4656,89 L632.9969,88.3281 L632.9969,86.8594 L638.5125,86.8594 L638.5125,88.3281 L637.0438,89 L637.0438,96.8594 L638.5125,97.5313 L638.5125,99 Z "/><ellipse cx="657.05" cy="92" fill="#84BE84" rx="3" ry="3" style="stroke: #038048; stroke-width: 1.0;"/><text fill="#000000" font-family="sans-serif" font-size="12" font-style="italic" lengthAdjust="spacingAndGlyphs" textLength="125" x="663.05" y="97.156">TweetStreamGenerator</text><line style="stroke: #A80036; stroke-width: 1.5;" x1="612.5" x2="799.5" y1="108.5" y2="108.5"/><line style="stroke: #A80036; stroke-width: 1.5;" x1="612.5" x2="799.5" y1="116.5" y2="116.5"/><text fill="#000000" font-family="sans-serif" font-size="11" lengthAdjust="spacingAndGlyphs" textLength="177" x="617.5" y="132.2589">getTweetStream(): Stream&lt;Tweet&gt;</text><!--class OnlineTweetStreamGenerator--><rect fill="#FEFECE" filter="url(#fs0ljapmh56cy)" height="48" id="OnlineTweetStreamGenerator" style="stroke: #A80036; stroke-width: 1.5;" width="212" x="384" y="519"/><ellipse cx="399" cy="535" fill="#ADD1B2" rx="11" ry="11" style="stroke: #A80036; stroke-width: 1.0;"/><path d="M398.6875,531.3281 Q397.2031,531.3281 396.4219,532.4375 Q395.6406,533.5469 395.6406,535.4688 Q395.6406,537.4063 396.3594,538.4688 Q397.0781,539.5313 398.6875,539.5313 Q399.4219,539.5313 400.1563,539.3594 Q400.9063,539.1875 401.7813,538.875 L401.7813,541.0469 Q400.9688,541.3594 400.1875,541.5156 Q399.4063,541.6719 398.4375,541.6719 Q396.5781,541.6719 395.3594,540.9063 Q394.1406,540.125 393.5625,538.7188 Q392.9844,537.3125 392.9844,535.4531 Q392.9844,533.6094 393.6406,532.2031 Q394.3125,530.7969 395.5781,530 Q396.8438,529.1875 398.6875,529.1875 Q399.5781,529.1875 400.4844,529.4219 Q401.4063,529.6563 402.2344,530.0469 L401.4063,532.1406 Q400.7188,531.8125 400.0313,531.5781 Q399.3438,531.3281 398.6875,531.3281 Z "/><ellipse cx="418" cy="534.5" fill="#84BE84" rx="3" ry="3" style="stroke: #038048; stroke-width: 1.0;"/><text fill="#000000" font-family="sans-serif" font-size="12" lengthAdjust="spacingAndGlyphs" textLength="169" x="424" y="539.656">OnlineTweetStreamGenerator</text><line style="stroke: #A80036; stroke-width: 1.5;" x1="385" x2="595" y1="551" y2="551"/><line style="stroke: #A80036; stroke-width: 1.5;" x1="385" x2="595" y1="559" y2="559"/><!--class OfflineTweetStreamGenerator--><rect fill="#FEFECE" filter="url(#fs0ljapmh56cy)" height="48" id="OfflineTweetStreamGenerator" style="stroke: #A80036; stroke-width: 1.5;" width="213" x="631.5" y="519"/><ellipse cx="646.5" cy="535" fill="#ADD1B2" rx="11" ry="11" style="stroke: #A80036; stroke-width: 1.0;"/><path d="M646.1875,531.3281 Q644.7031,531.3281 643.9219,532.4375 Q643.1406,533.5469 643.1406,535.4688 Q643.1406,537.4063 643.8594,538.4688 Q644.5781,539.5313 646.1875,539.5313 Q646.9219,539.5313 647.6563,539.3594 Q648.4063,539.1875 649.2813,538.875 L649.2813,541.0469 Q648.4688,541.3594 647.6875,541.5156 Q646.9063,541.6719 645.9375,541.6719 Q644.0781,541.6719 642.8594,540.9063 Q641.6406,540.125 641.0625,538.7188 Q640.4844,537.3125 640.4844,535.4531 Q640.4844,533.6094 641.1406,532.2031 Q641.8125,530.7969 643.0781,530 Q644.3438,529.1875 646.1875,529.1875 Q647.0781,529.1875 647.9844,529.4219 Q648.9063,529.6563 649.7344,530.0469 L648.9063,532.1406 Q648.2188,531.8125 647.5313,531.5781 Q646.8438,531.3281 646.1875,531.3281 Z "/><ellipse cx="665.5" cy="534.5" fill="#84BE84" rx="3" ry="3" style="stroke: #038048; stroke-width: 1.0;"/><text fill="#000000" font-family="sans-serif" font-size="12" lengthAdjust="spacingAndGlyphs" textLength="170" x="671.5" y="539.656">OfflineTweetStreamGenerator</text><line style="stroke: #A80036; stroke-width: 1.5;" x1="632.5" x2="843.5" y1="551" y2="551"/><line style="stroke: #A80036; stroke-width: 1.5;" x1="632.5" x2="843.5" y1="559" y2="559"/><!--link TweetStreamGenerator to OnlineTweetStreamGenerator--><path d="M688.2426,158.9962 C684.1649,174.6771 681,192.1231 681,208.5 C681,208.5 681,208.5 681,448.5 C681,466.6367 687.7606,475.1932 676,489 C664.5802,502.4067 631.3643,513.883 596.1013,522.764 " fill="none" id="TweetStreamGenerator-OnlineTweetStreamGenerator" style="stroke: #A80036; stroke-width: 1.0; stroke-dasharray: 7.0,7.0;"/><polygon fill="none" points="681.578,156.8475,693.9394,139.6371,695.0086,160.7997,681.578,156.8475" style="stroke: #A80036; stroke-width: 1.0;"/><!--link TweetStreamGenerator to OfflineTweetStreamGenerator--><path d="M723.7574,158.9962 C727.8351,174.6771 731,192.1231 731,208.5 C731,208.5 731,208.5 731,448.5 C731,472.5188 733.2768,499.8778 735.2334,518.9549 " fill="none" id="TweetStreamGenerator-OfflineTweetStreamGenerator" style="stroke: #A80036; stroke-width: 1.0; stroke-dasharray: 7.0,7.0;"/><polygon fill="none" points="716.9914,160.7997,718.0606,139.6371,730.422,156.8475,716.9914,160.7997" style="stroke: #A80036; stroke-width: 1.0;"/><!--link TweetStreamFactory to OnlineTweetStreamGenerator--><path d="M220.7456,378.2811 C235.7655,405.2068 256.9127,436.4834 283,458 C315.1963,484.5551 356.8226,503.7913 394.2951,517.1749 " fill="none" id="TweetStreamFactory-OnlineTweetStreamGenerator" style="stroke: #A80036; stroke-width: 1.0;"/><polygon fill="#A80036" points="399.3161,518.9423,392.155,512.1807,394.5998,517.282,389.4985,519.7268,399.3161,518.9423" style="stroke: #A80036; stroke-width: 1.0;"/><text fill="#000000" font-family="sans-serif" font-size="13" lengthAdjust="spacingAndGlyphs" textLength="144" x="284" y="453.897">Instantiates and returns</text><!--link TweetStreamFactory to OfflineTweetStreamGenerator--><path d="M329.2248,378.1348 C438.955,422.3907 589.2835,483.0204 673.7011,517.0673 " fill="none" id="TweetStreamFactory-OfflineTweetStreamGenerator" style="stroke: #A80036; stroke-width: 1.0;"/><polygon fill="#A80036" points="678.4175,518.9695,671.5669,511.8935,673.7804,517.0993,668.5746,519.3128,678.4175,518.9695" style="stroke: #A80036; stroke-width: 1.0;"/><text fill="#000000" font-family="sans-serif" font-size="13" lengthAdjust="spacingAndGlyphs" textLength="144" x="528" y="453.897">Instantiates and returns</text><!--
@startuml GeneratorSpec

package de.thro.inf.prg3.a13.tweets {

        +class TweetStreamFactory {
                -{static}instance: TweetStreamFactory
                +{static}getInstance(): TweetStreamFactory
                +isOnlineAvailable(): boolean
                +getTweetsStream(tweetSource: TweetSource): Stream<Tweet>
        }

        +enum TweetSource {
                ONLINE,
                OFFLINE
        }

        package generators {
                +interface TweetStreamGenerator {
                        getTweetStream(): Stream<Tweet>
                }

                +class OnlineTweetStreamGenerator implements TweetStreamGenerator {

                }

                +class OfflineTweetStreamGenerator implements TweetStreamGenerator {

                }
        }

        TweetStreamFactory - -> OnlineTweetStreamGenerator: Instantiates and returns
        TweetStreamFactory - -> OfflineTweetStreamGenerator: Instantiates and returns
}

@enduml

PlantUML version 1.2018.14(Fri Dec 21 17:33:16 CET 2018)
(GPL source distribution)
Java Runtime: OpenJDK Runtime Environment
JVM: OpenJDK 64-Bit Server VM
Java Version: 11.0.1+13
Operating System: Linux
OS Version: 4.20.0-arch1-1-ARCH
Default Encoding: UTF-8
Language: en
Country: US
--></g></svg>