<?xml version="1.0" encoding="UTF-8" standalone="no"?><svg xmlns="http://www.w3.org/2000/svg" xmlns:xlink="http://www.w3.org/1999/xlink" contentScriptType="application/ecmascript" contentStyleType="text/css" height="364px" preserveAspectRatio="none" style="width:555px;height:364px;" version="1.1" viewBox="0 0 555 364" width="555px" zoomAndPan="magnify"><defs><filter height="300%" id="f1f85lhtsaqjkp" width="300%" x="-1" y="-1"><feGaussianBlur result="blurOut" stdDeviation="2.0"/><feColorMatrix in="blurOut" result="blurOut2" type="matrix" values="0 0 0 0 0 0 0 0 0 0 0 0 0 0 0 0 0 0 .4 0"/><feOffset dx="4.0" dy="4.0" in="blurOut2" result="blurOut3"/><feBlend in="SourceGraphic" in2="blurOut3" mode="normal"/></filter></defs><g><ellipse cx="277" cy="20" fill="#000000" filter="url(#f1f85lhtsaqjkp)" rx="10" ry="10" style="stroke: none; stroke-width: 1.0;"/><rect fill="#FEFECE" filter="url(#f1f85lhtsaqjkp)" height="33.9688" rx="12.5" ry="12.5" style="stroke: #A80036; stroke-width: 1.5;" width="175" x="189.5" y="50"/><text fill="#000000" font-family="sans-serif" font-size="12" lengthAdjust="spacingAndGlyphs" textLength="155" x="199.5" y="71.1387">Get the text of the tweet</text><rect fill="#FEFECE" filter="url(#f1f85lhtsaqjkp)" height="33.9688" rx="12.5" ry="12.5" style="stroke: #A80036; stroke-width: 1.5;" width="229" x="162.5" y="103.9688"/><text fill="#000000" font-family="sans-serif" font-size="12" lengthAdjust="spacingAndGlyphs" textLength="209" x="172.5" y="125.1074">Split the text at every whitespace</text><rect fill="#FEFECE" filter="url(#f1f85lhtsaqjkp)" height="33.9688" rx="12.5" ry="12.5" style="stroke: #A80036; stroke-width: 1.5;" width="463" x="45.5" y="157.9375"/><text fill="#000000" font-family="sans-serif" font-size="12" lengthAdjust="spacingAndGlyphs" textLength="443" x="55.5" y="179.0762">Use `flatMap` to map the resulting arrays to a single stream of Strings</text><rect fill="#FEFECE" filter="url(#f1f85lhtsaqjkp)" height="33.9688" rx="12.5" ry="12.5" style="stroke: #A80036; stroke-width: 1.5;" width="534" x="10" y="211.9063"/><text fill="#000000" font-family="sans-serif" font-size="12" lengthAdjust="spacingAndGlyphs" textLength="514" x="20" y="233.0449">Optional: use `filter` to remove words that are excluded by the list of `stopWords`</text><rect fill="#FEFECE" filter="url(#f1f85lhtsaqjkp)" height="33.9688" rx="12.5" ry="12.5" style="stroke: #A80036; stroke-width: 1.5;" width="355" x="99.5" y="265.875"/><text fill="#000000" font-family="sans-serif" font-size="12" lengthAdjust="spacingAndGlyphs" textLength="335" x="109.5" y="287.0137">Reduce the interim results to a Map&lt;String, Integer&gt;</text><rect fill="#FEFECE" filter="url(#f1f85lhtsaqjkp)" height="33.9688" rx="12.5" ry="12.5" style="stroke: #A80036; stroke-width: 1.5;" width="364" x="95" y="319.8438"/><text fill="#000000" font-family="sans-serif" font-size="12" lengthAdjust="spacingAndGlyphs" textLength="344" x="105" y="340.9824">Optional: remove words that occure less than 10 times</text><line style="stroke: #A80036; stroke-width: 1.5;" x1="277" x2="277" y1="30" y2="50"/><polygon fill="#A80036" points="273,40,277,50,281,40,277,44" style="stroke: #A80036; stroke-width: 1.0;"/><line style="stroke: #A80036; stroke-width: 1.5;" x1="277" x2="277" y1="83.9688" y2="103.9688"/><polygon fill="#A80036" points="273,93.9688,277,103.9688,281,93.9688,277,97.9688" style="stroke: #A80036; stroke-width: 1.0;"/><line style="stroke: #A80036; stroke-width: 1.5;" x1="277" x2="277" y1="137.9375" y2="157.9375"/><polygon fill="#A80036" points="273,147.9375,277,157.9375,281,147.9375,277,151.9375" style="stroke: #A80036; stroke-width: 1.0;"/><line style="stroke: #A80036; stroke-width: 1.5;" x1="277" x2="277" y1="191.9063" y2="211.9063"/><polygon fill="#A80036" points="273,201.9063,277,211.9063,281,201.9063,277,205.9063" style="stroke: #A80036; stroke-width: 1.0;"/><line style="stroke: #A80036; stroke-width: 1.5;" x1="277" x2="277" y1="245.875" y2="265.875"/><polygon fill="#A80036" points="273,255.875,277,265.875,281,255.875,277,259.875" style="stroke: #A80036; stroke-width: 1.0;"/><line style="stroke: #A80036; stroke-width: 1.5;" x1="277" x2="277" y1="299.8438" y2="319.8438"/><polygon fill="#A80036" points="273,309.8438,277,319.8438,281,309.8438,277,313.8438" style="stroke: #A80036; stroke-width: 1.0;"/><!--
@startuml MapReduce-WordCount
start
:Get the text of the tweet;
:Split the text at every whitespace;
:Use `flatMap` to map the resulting arrays to a single stream of Strings;
:Optional: use `filter` to remove words that are excluded by the list of `stopWords`;
:Reduce the interim results to a Map<String, Integer>;
:Optional: remove words that occure less than 10 times;
@enduml

PlantUML version 1.2018.00(Thu Jan 04 20:42:56 CET 2018)
(GPL source distribution)
Java Runtime: OpenJDK Runtime Environment
JVM: OpenJDK 64-Bit Server VM
Java Version: 9+181
Operating System: Linux
OS Version: 4.14.13-1-ARCH
Default Encoding: UTF-8
Language: en
Country: US
--></g></svg>