<?xml version="1.0" encoding="UTF-8" standalone="no"?><svg xmlns="http://www.w3.org/2000/svg" xmlns:xlink="http://www.w3.org/1999/xlink" contentScriptType="application/ecmascript" contentStyleType="text/css" height="159px" preserveAspectRatio="none" style="width:592px;height:159px;" version="1.1" viewBox="0 0 592 159" width="592px" zoomAndPan="magnify"><defs><filter height="300%" id="f47nsduhvd255" width="300%" x="-1" y="-1"><feGaussianBlur result="blurOut" stdDeviation="2.0"/><feColorMatrix in="blurOut" result="blurOut2" type="matrix" values="0 0 0 0 0 0 0 0 0 0 0 0 0 0 0 0 0 0 .4 0"/><feOffset dx="4.0" dy="4.0" in="blurOut2" result="blurOut3"/><feBlend in="SourceGraphic" in2="blurOut3" mode="normal"/></filter></defs><g><!--cluster de.thro.inf.prg3.a13.tweets--><polygon fill="#FFFFFF" filter="url(#f47nsduhvd255)" points="14,16,208,16,215,41.0679,570,41.0679,570,147,14,147,14,16" style="stroke: #000000; stroke-width: 1.5;"/><line style="stroke: #000000; stroke-width: 1.5;" x1="14" x2="215" y1="41.0679" y2="41.0679"/><text fill="#000000" font-family="sans-serif" font-size="14" font-weight="bold" lengthAdjust="spacingAndGlyphs" textLength="188" x="18" y="32.9659">de.thro.inf.prg3.a13.tweets</text><!--class TrumpTweetStats--><rect fill="#FEFECE" filter="url(#f47nsduhvd255)" height="92.9457" id="TrumpTweetStats" style="stroke: #A80036; stroke-width: 1.5;" width="539" x="22.5" y="46"/><ellipse cx="232.75" cy="62" fill="#ADD1B2" rx="11" ry="11" style="stroke: #A80036; stroke-width: 1.0;"/><path d="M232.4375,58.3281 Q230.9531,58.3281 230.1719,59.4375 Q229.3906,60.5469 229.3906,62.4688 Q229.3906,64.4063 230.1094,65.4688 Q230.8281,66.5313 232.4375,66.5313 Q233.1719,66.5313 233.9063,66.3594 Q234.6563,66.1875 235.5313,65.875 L235.5313,68.0469 Q234.7188,68.3594 233.9375,68.5156 Q233.1563,68.6719 232.1875,68.6719 Q230.3281,68.6719 229.1094,67.9063 Q227.8906,67.125 227.3125,65.7188 Q226.7344,64.3125 226.7344,62.4531 Q226.7344,60.6094 227.3906,59.2031 Q228.0625,57.7969 229.3281,57 Q230.5938,56.1875 232.4375,56.1875 Q233.3281,56.1875 234.2344,56.4219 Q235.1563,56.6563 235.9844,57.0469 L235.1563,59.1406 Q234.4688,58.8125 233.7813,58.5781 Q233.0938,58.3281 232.4375,58.3281 Z "/><ellipse cx="258.25" cy="61.5" fill="#84BE84" rx="3" ry="3" style="stroke: #038048; stroke-width: 1.0;"/><text fill="#000000" font-family="sans-serif" font-size="12" lengthAdjust="spacingAndGlyphs" textLength="99" x="264.25" y="66.656">TrumpTweetStats</text><line style="stroke: #A80036; stroke-width: 1.5;" x1="23.5" x2="560.5" y1="78" y2="78"/><line style="stroke: #A80036; stroke-width: 1.5;" x1="23.5" x2="560.5" y1="86" y2="86"/><ellipse cx="33.5" cy="98.9909" fill="#84BE84" rx="3" ry="3" style="stroke: #038048; stroke-width: 1.0;"/><text fill="#000000" font-family="sans-serif" font-size="11" lengthAdjust="spacingAndGlyphs" text-decoration="underline" textLength="391" x="42.5" y="101.7589">calculateSourceAppStats(tweetStream: Stream&lt;Tweet&gt;): Map&lt;String, Long&gt;</text><line style="stroke: #000000; stroke-width: 1.0;" x1="42.5" x2="433.5" y1="103.7589" y2="103.7589"/><ellipse cx="33.5" cy="113.9728" fill="#84BE84" rx="3" ry="3" style="stroke: #038048; stroke-width: 1.0;"/><text fill="#000000" font-family="sans-serif" font-size="11" lengthAdjust="spacingAndGlyphs" text-decoration="underline" textLength="447" x="42.5" y="116.7408">calculateTweetsBySourceApp(tweetStream: Stream&lt;Tweet&gt;): Map&lt;String, Set&lt;Tweet&gt;&gt;</text><line style="stroke: #000000; stroke-width: 1.0;" x1="42.5" x2="489.5" y1="118.7408" y2="118.7408"/><ellipse cx="33.5" cy="128.9547" fill="#84BE84" rx="3" ry="3" style="stroke: #038048; stroke-width: 1.0;"/><text fill="#000000" font-family="sans-serif" font-size="11" lengthAdjust="spacingAndGlyphs" text-decoration="underline" textLength="513" x="42.5" y="131.7227">calculateWordCount(tweetStream: Stream&lt;Tweet&gt;, stopWords: List&lt;String&gt;): Map&lt;String, Integer&gt;</text><line style="stroke: #000000; stroke-width: 1.0;" x1="42.5" x2="555.5" y1="133.7227" y2="133.7227"/><!--
@startuml TrumpTweetStats

package de.thro.inf.prg3.a13.tweets {
        +class TrumpTweetStats {
                +{static}calculateSourceAppStats(tweetStream: Stream<Tweet>): Map<String, Long>
                +{static}calculateTweetsBySourceApp(tweetStream: Stream<Tweet>): Map<String, Set<Tweet>>
                +{static}calculateWordCount(tweetStream: Stream<Tweet>, stopWords: List<String>): Map<String, Integer>
        }
}

@enduml

PlantUML version 1.2018.14(Fri Dec 21 17:33:16 CET 2018)
(GPL source distribution)
Java Runtime: OpenJDK Runtime Environment
JVM: OpenJDK 64-Bit Server VM
Java Version: 11.0.1+13
Operating System: Linux
OS Version: 4.20.0-arch1-1-ARCH
Default Encoding: UTF-8
Language: en
Country: US
--></g></svg>