<?xml version="1.0" encoding="UTF-8" standalone="no"?><svg xmlns="http://www.w3.org/2000/svg" xmlns:xlink="http://www.w3.org/1999/xlink" contentScriptType="application/ecmascript" contentStyleType="text/css" height="149px" preserveAspectRatio="none" style="width:652px;height:149px;" version="1.1" viewBox="0 0 652 149" width="652px" zoomAndPan="magnify"><defs><filter height="300%" id="fussuwyp9326j" width="300%" x="-1" y="-1"><feGaussianBlur result="blurOut" stdDeviation="2.0"/><feColorMatrix in="blurOut" result="blurOut2" type="matrix" values="0 0 0 0 0 0 0 0 0 0 0 0 0 0 0 0 0 0 .4 0"/><feOffset dx="4.0" dy="4.0" in="blurOut2" result="blurOut3"/><feBlend in="SourceGraphic" in2="blurOut3" mode="normal"/></filter></defs><g><!--cluster de.fhro.inf.prg3.a13.tweets--><polygon fill="#FFFFFF" filter="url(#fussuwyp9326j)" points="14,16,239,16,246,38.2969,630,38.2969,630,137,14,137,14,16" style="stroke: #000000; stroke-width: 1.5;"/><line style="stroke: #000000; stroke-width: 1.5;" x1="14" x2="246" y1="38.2969" y2="38.2969"/><text fill="#000000" font-family="sans-serif" font-size="14" font-weight="bold" lengthAdjust="spacingAndGlyphs" textLength="219" x="18" y="30.9951">de.fhro.inf.prg3.a13.tweets</text><!--class TrumpTweetStats--><rect fill="#FEFECE" filter="url(#fussuwyp9326j)" height="86.4141" id="TrumpTweetStats" style="stroke: #A80036; stroke-width: 1.5;" width="599" x="22.5" y="43"/><ellipse cx="257.75" cy="59" fill="#ADD1B2" rx="11" ry="11" style="stroke: #A80036; stroke-width: 1.0;"/><path d="M260.7188,64.6406 Q260.1406,64.9375 259.5,65.0781 Q258.8594,65.2344 258.1563,65.2344 Q255.6563,65.2344 254.3281,63.5938 Q253.0156,61.9375 253.0156,58.8125 Q253.0156,55.6875 254.3281,54.0313 Q255.6563,52.375 258.1563,52.375 Q258.8594,52.375 259.5,52.5313 Q260.1563,52.6875 260.7188,52.9844 L260.7188,55.7031 Q260.0938,55.125 259.5,54.8594 Q258.9063,54.5781 258.2813,54.5781 Q256.9375,54.5781 256.25,55.6563 Q255.5625,56.7188 255.5625,58.8125 Q255.5625,60.9063 256.25,61.9844 Q256.9375,63.0469 258.2813,63.0469 Q258.9063,63.0469 259.5,62.7813 Q260.0938,62.5 260.7188,61.9219 L260.7188,64.6406 Z "/><ellipse cx="283.25" cy="58.5" fill="#84BE84" rx="3" ry="3" style="stroke: #038048; stroke-width: 1.0;"/><text fill="#000000" font-family="sans-serif" font-size="12" lengthAdjust="spacingAndGlyphs" textLength="109" x="289.25" y="63.1543">TrumpTweetStats</text><line style="stroke: #A80036; stroke-width: 1.5;" x1="23.5" x2="620.5" y1="75" y2="75"/><line style="stroke: #A80036; stroke-width: 1.5;" x1="23.5" x2="620.5" y1="83" y2="83"/><ellipse cx="33.5" cy="94.9023" fill="#84BE84" rx="3" ry="3" style="stroke: #038048; stroke-width: 1.0;"/><text fill="#000000" font-family="sans-serif" font-size="11" lengthAdjust="spacingAndGlyphs" text-decoration="underline" textLength="442" x="42.5" y="97.2104">calculateSourceAppStats(tweetStream: Stream&lt;Tweet&gt;): Map&lt;String, Long&gt;</text><line style="stroke: #000000; stroke-width: 1.0;" x1="42.5" x2="484.5" y1="99.2104" y2="99.2104"/><ellipse cx="33.5" cy="107.707" fill="#84BE84" rx="3" ry="3" style="stroke: #038048; stroke-width: 1.0;"/><text fill="#000000" font-family="sans-serif" font-size="11" lengthAdjust="spacingAndGlyphs" text-decoration="underline" textLength="511" x="42.5" y="110.0151">calculateTweetsBySourceApp(tweetStream: Stream&lt;Tweet&gt;): Map&lt;String, Set&lt;Tweet&gt;&gt;</text><line style="stroke: #000000; stroke-width: 1.0;" x1="42.5" x2="553.5" y1="112.0151" y2="112.0151"/><ellipse cx="33.5" cy="120.5117" fill="#84BE84" rx="3" ry="3" style="stroke: #038048; stroke-width: 1.0;"/><text fill="#000000" font-family="sans-serif" font-size="11" lengthAdjust="spacingAndGlyphs" text-decoration="underline" textLength="573" x="42.5" y="122.8198">calculateWordCount(tweetStream: Stream&lt;Tweet&gt;, stopWords: List&lt;String&gt;): Map&lt;String, Integer&gt;</text><line style="stroke: #000000; stroke-width: 1.0;" x1="42.5" x2="615.5" y1="124.8198" y2="124.8198"/><!--
@startuml TrumpTweetStats

package de.fhro.inf.prg3.a13.tweets {
        +class TrumpTweetStats {
                +{static}calculateSourceAppStats(tweetStream: Stream<Tweet>): Map<String, Long>
                +{static}calculateTweetsBySourceApp(tweetStream: Stream<Tweet>): Map<String, Set<Tweet>>
                +{static}calculateWordCount(tweetStream: Stream<Tweet>, stopWords: List<String>): Map<String, Integer>
        }
}

@enduml

PlantUML version 1.2018.00(Thu Jan 04 20:42:56 CET 2018)
(GPL source distribution)
Java Runtime: OpenJDK Runtime Environment
JVM: OpenJDK 64-Bit Server VM
Java Version: 9+181
Operating System: Linux
OS Version: 4.14.13-1-ARCH
Default Encoding: UTF-8
Language: en
Country: US
--></g></svg>